# xmcd CD database file
#
# Track frame offsets:
#	150
#	7919
#	19424
#	26707
#	32542
#	35609
#	41540
#	48130
#	54026
#	62968
#	70163
#	80173
#	84534
#	91450
#	95089
#	108745
#	112340
#	116059
#	124850
#	140093
#	144997
#	150727
#	156497
#	165409
#	169762
#	175338
#	182443
#	187538
#	194146
#	200300
#	213234
#	220169
#	226442
#	231002
#	239685
#	243894
#	251319
#	256534
#	260728
#	263417
#
# Disc length: 3552 seconds
#
# Revision: 1
# Processed by: cddbd v1.5.1PL0 Copyright (c) Steve Scherf et al.
# Submitted via: CDex 1.51
#
DISCID=300dde28
DTITLE=Anthologie de la poésie de langue française - Anthologie Poesie 4
DYEAR=1900
DGENRE=
TTITLE0=Gautier - Premier sourire de printemps
TTITLE1=Leconte de Lisle - Midi
TTITLE2=Rostand - Hymne au soleil
TTITLE3=Hérédia - Soleil couchant
TTITLE4=Rimbaud - Sensation
TTITLE5=Baudelaire - Chant d'automne
TTITLE6=Charles d'Orléans - Rondeaux
TTITLE7=Verhaeren - Les hôtes
TTITLE8=Maupassant - Nuit de neige
TTITLE9=Moréas - Stances
TTITLE10=Lamartine - Le vallon
TTITLE11=Gautier - Dans la sierra
TTITLE12=Musset - Ballade à la lune
TTITLE13=Rollinat - La biche
TTITLE14=Gautier - Ce que disent les hirondelles
TTITLE15=Corbière - Paysage mauvais
TTITLE16=Baudelaire - Le chat
TTITLE17=Du Bellay - Epitaphe d'un chat
TTITLE18=Samain - Mon âme est une infante
TTITLE19=Baudelaire - L'albatros
TTITLE20=Mallarmé - Le vierge, le vivace et le bel aujourd'hui
TTITLE21=Corbière - Le crapaud
TTITLE22=Corbière - Epitaphe
TTITLE23=Cros - Moi, je vis la vie à côté
TTITLE24=Gautier - Carmen
TTITLE25=Rimbaud - Les chercheuses de poux
TTITLE26=Baudelaire - Les aveugles
TTITLE27=Rimbaud - Les effarés
TTITLE28=Rollinat - Chopin
TTITLE29=Baudelaire - Les phares
TTITLE30=Deschamps - Ballade du contrefait
TTITLE31=Régnier M. - Satire XIX
TTITLE32=Du Bellay - Les vieux "singes de cours"
TTITLE33=Scarron - Stances pour madame de Hautefort
TTITLE34=Sarasin - Lorsqu'Adam vit cette jeune beauté
TTITLE35=Auvray - Contre une dame trop maigre
TTITLE36=Scarron - Vous faites voir des os
TTITLE37=Saint-Amant - Sonnet inachevé
TTITLE38=Corneille - Epigramme sur le Cardinal de Richelieu
TTITLE39=Voltaire - Epigrammes
EXTD=
EXTT0=
EXTT1=
EXTT2=
EXTT3=
EXTT4=
EXTT5=
EXTT6=
EXTT7=
EXTT8=
EXTT9=
EXTT10=
EXTT11=
EXTT12=
EXTT13=
EXTT14=
EXTT15=
EXTT16=
EXTT17=
EXTT18=
EXTT19=
EXTT20=
EXTT21=
EXTT22=
EXTT23=
EXTT24=
EXTT25=
EXTT26=
EXTT27=
EXTT28=
EXTT29=
EXTT30=
EXTT31=
EXTT32=
EXTT33=
EXTT34=
EXTT35=
EXTT36=
EXTT37=
EXTT38=
EXTT39=
PLAYORDER=
